<svg width="30" height="30" viewBox="0 0 30 30" fill="none" xmlns="http://www.w3.org/2000/svg">
<g clip-path="url(#clip0_6_2)">
<path d="M5.625 4.5293C5.625 4.10156 5.9707 3.75 6.4043 3.75C6.60938 3.75 6.80859 3.83203 6.95508 3.97852L7.82813 4.85156C7.61719 5.37891 7.5 5.95898 7.5 6.5625C7.5 7.72852 7.92187 8.78906 8.625 9.60938C8.31445 10.1484 8.39062 10.8457 8.84766 11.3086C9.39844 11.8594 10.2891 11.8594 10.834 11.3086L16.9336 5.21484C17.4844 4.66406 17.4844 3.77344 16.9336 3.22852C16.4707 2.76562 15.7734 2.69531 15.2344 3.00586C14.4141 2.29687 13.3535 1.875 12.1875 1.875C11.584 1.875 11.0039 1.99219 10.4766 2.19727L9.60352 1.32422C8.75391 0.474609 7.59961 0 6.4043 0C3.90234 0 1.875 2.02734 1.875 4.5293V15C0.837891 15 0 15.8379 0 16.875C0 17.9121 0.837891 18.75 1.875 18.75H28.125C29.1621 18.75 30 17.9121 30 16.875C30 15.8379 29.1621 15 28.125 15H5.625V4.5293ZM1.875 20.625V21.5625C1.875 23.2266 2.60156 24.7266 3.75 25.7578V28.125C3.75 29.1621 4.58789 30 5.625 30C6.66211 30 7.5 29.1621 7.5 28.125V27.1875H22.5V28.125C22.5 29.1621 23.3379 30 24.375 30C25.4121 30 26.25 29.1621 26.25 28.125V25.7578C27.3984 24.7266 28.125 23.2324 28.125 21.5625V20.625H1.875Z" fill="#0BC3EC"/>
</g>
<defs>
<clipPath id="clip0_6_2">
<rect width="30" height="30" fill="white"/>
</clipPath>
</defs>
</svg>
