<svg width="30" height="26" viewBox="0 0 30 26" fill="none" xmlns="http://www.w3.org/2000/svg">
<path d="M3.402 24H3C2.20435 24 1.44129 23.6839 0.87868 23.1213C0.31607 22.5587 0 21.7956 0 21V3C0 2.20435 0.31607 1.44129 0.87868 0.878679C1.44129 0.31607 2.20435 0 3 0H27C27.7956 0 28.5587 0.31607 29.1213 0.878679C29.6839 1.44129 30 2.20435 30 3V21C30 21.7956 29.6839 22.5587 29.1213 23.1213C28.5587 23.6839 27.7956 24 27 24H26.598C26.3347 24.456 25.956 24.8347 25.4999 25.098C25.0439 25.3613 24.5266 25.4999 24 25.4999C23.4734 25.4999 22.9561 25.3613 22.5001 25.098C22.044 24.8347 21.6653 24.456 21.402 24H8.598C8.33468 24.456 7.95598 24.8347 7.49993 25.098C7.04389 25.3613 6.52658 25.4999 6 25.4999C5.47342 25.4999 4.95611 25.3613 4.50007 25.098C4.04402 24.8347 3.66532 24.456 3.402 24V24ZM3 3V21H27V3H3ZM6 12H24V18H6V12ZM6 6H13.5V9H6V6ZM12 13.5V15H18V13.5H12ZM18 9C17.6022 9 17.2206 8.84196 16.9393 8.56066C16.658 8.27935 16.5 7.89782 16.5 7.5C16.5 7.10217 16.658 6.72064 16.9393 6.43934C17.2206 6.15804 17.6022 6 18 6C18.3978 6 18.7794 6.15804 19.0607 6.43934C19.342 6.72064 19.5 7.10217 19.5 7.5C19.5 7.89782 19.342 8.27935 19.0607 8.56066C18.7794 8.84196 18.3978 9 18 9ZM22.5 9C22.1022 9 21.7206 8.84196 21.4393 8.56066C21.158 8.27935 21 7.89782 21 7.5C21 7.10217 21.158 6.72064 21.4393 6.43934C21.7206 6.15804 22.1022 6 22.5 6C22.8978 6 23.2794 6.15804 23.5607 6.43934C23.842 6.72064 24 7.10217 24 7.5C24 7.89782 23.842 8.27935 23.5607 8.56066C23.2794 8.84196 22.8978 9 22.5 9Z" fill="#F24E1E"/>
</svg>
