<svg width="30" height="24" viewBox="0 0 30 24" fill="none" xmlns="http://www.w3.org/2000/svg">
<path d="M4.5 6.225V3C4.5 1.35 5.85 0 7.5 0H22.5C24.15 0 25.5 1.35 25.5 3V6.24C23.76 6.855 22.5 8.505 22.5 10.455V13.5H7.5V10.44C7.5 8.505 6.24 6.84 4.5 6.225ZM27 7.5C25.35 7.5 24 8.85 24 10.5V15H6V10.5C6 9.70435 5.68393 8.94129 5.12132 8.37868C4.55871 7.81607 3.79565 7.5 3 7.5C2.20435 7.5 1.44129 7.81607 0.87868 8.37868C0.31607 8.94129 0 9.70435 0 10.5V18C0 19.65 1.35 21 3 21V24H6V21H24V24H27V21C28.65 21 30 19.65 30 18V10.5C30 8.85 28.65 7.5 27 7.5Z" fill="#0FA958"/>
</svg>
